<svg xmlns="http://www.w3.org/2000/svg" viewBox="0 0 100 100" width="100" height="100">
  <defs>
    <linearGradient id="g1" x1="0%" y1="0%" x2="100%" y2="100%">
      <stop offset="0%" stop-color="#6366f1"/>
      <stop offset="50%" stop-color="#8b5cf6"/>
      <stop offset="100%" stop-color="#a78bfa"/>
    </linearGradient>
    <linearGradient id="g2" x1="0%" y1="0%" x2="100%" y2="100%">
      <stop offset="0%" stop-color="#818cf8"/>
      <stop offset="100%" stop-color="#c4b5fd"/>
    </linearGradient>
  </defs>
  <!-- Background -->
  <rect width="100" height="100" rx="18" fill="#0f172a"/>
  <!-- Left wing -->
  <path d="M28 38 C22 30, 18 22, 28 18 C32 16, 36 20, 40 26 C36 28, 32 32, 28 38Z" fill="url(#g1)" opacity="0.9"/>
  <path d="M32 42 C26 34, 22 26, 32 22 C36 20, 40 24, 44 30 C40 32, 36 36, 32 42Z" fill="url(#g2)" opacity="0.7"/>
  <!-- Right wing -->
  <path d="M72 38 C78 30, 82 22, 72 18 C68 16, 64 20, 60 26 C64 28, 68 32, 72 38Z" fill="url(#g1)" opacity="0.9"/>
  <path d="M68 42 C74 34, 78 26, 68 22 C64 20, 60 24, 56 30 C60 32, 64 36, 68 42Z" fill="url(#g2)" opacity="0.7"/>
  <!-- Central node / brain -->
  <circle cx="50" cy="46" r="10" fill="url(#g1)" opacity="0.95"/>
  <circle cx="50" cy="46" r="5" fill="#c4b5fd" opacity="0.8"/>
  <!-- Connection lines -->
  <line x1="30" y1="60" x2="50" y2="46" stroke="#6366f1" stroke-width="1.5" opacity="0.6"/>
  <line x1="70" y1="60" x2="50" y2="46" stroke="#6366f1" stroke-width="1.5" opacity="0.6"/>
  <line x1="50" y1="56" x2="50" y2="70" stroke="#6366f1" stroke-width="1.5" opacity="0.6"/>
  <!-- Bottom nodes -->
  <circle cx="30" cy="60" r="4" fill="url(#g2)" opacity="0.8"/>
  <circle cx="70" cy="60" r="4" fill="url(#g2)" opacity="0.8"/>
  <circle cx="50" cy="72" r="4" fill="url(#g2)" opacity="0.8"/>
  <!-- Bottom connections -->
  <line x1="30" y1="60" x2="50" y2="72" stroke="#818cf8" stroke-width="1" opacity="0.4"/>
  <line x1="70" y1="60" x2="50" y2="72" stroke="#818cf8" stroke-width="1" opacity="0.4"/>
  <!-- Text -->
  <text x="50" y="90" font-family="system-ui, sans-serif" font-size="10" font-weight="700" fill="#a78bfa" text-anchor="middle" letter-spacing="2">HERMES</text>
</svg>
